<svg xmlns="http://www.w3.org/2000/svg" viewBox="0 0 512 512">
  <rect width="512" height="512" rx="128" fill="#0ea5e9"/>
  <g fill="white">
    <!-- Wellen Symbol -->
    <path d="M128 256c0-17.7 14.3-32 32-32s32 14.3 32 32-14.3 32-32 32-32-14.3-32-32z"/>
    <path d="M224 256c0-17.7 14.3-32 32-32s32 14.3 32 32-14.3 32-32 32-32-14.3-32-32z"/>
    <path d="M320 256c0-17.7 14.3-32 32-32s32 14.3 32 32-14.3 32-32 32-32-14.3-32-32z"/>
    <!-- Schwimmer -->
    <circle cx="256" cy="180" r="40"/>
    <ellipse cx="256" cy="300" rx="80" ry="40"/>
  </g>
  <!-- Text -->
  <text x="256" y="420" font-family="Arial, sans-serif" font-size="64" font-weight="bold" fill="white" text-anchor="middle">BA</text>
</svg>
